<svg id="Capa_1" enable-background="new 0 0 511.998 511.998" height="512" viewBox="0 0 511.998 511.998" width="512" xmlns="http://www.w3.org/2000/svg"><g><g><path d="m122.819 114.957v-73.607h-60.945v124.758z" fill="#c9bfc8"/><path d="m122.816 41.35v73.609l-20.84 17.487v-91.096z" fill="#baafb9"/><path d="m55.329 58.243h74.035c2.488 0 4.506-2.017 4.506-4.506v-24.951c0-2.488-2.017-4.506-4.506-4.506h-74.035c-2.488 0-4.506 2.017-4.506 4.506v24.952c.001 2.488 2.018 4.505 4.506 4.505z" fill="#5f99d7"/><path d="m133.871 28.783v24.955c0 2.487-2.018 4.505-4.505 4.505h-19.223c2.487 0 4.505-2.018 4.505-4.505v-24.955c0-2.487-2.018-4.505-4.505-4.505h19.223c2.487 0 4.505 2.018 4.505 4.505z" fill="#3c87d0"/></g><path d="m264.322 67.791 210.107 172.717v271.484h-218.43-218.431v-271.483l210.107-172.718c4.847-3.983 11.801-3.983 16.647 0z" fill="#efedef"/><path d="m474.429 257.849v254.149h-20.612v-235.483c0-4.547-2.035-8.855-5.548-11.742l-206.801-170.011c-.978-.803-2.048-1.451-3.169-1.924l9.375-7.708c4.847-3.983 11.803-3.983 16.651 0z" fill="#e5e1e5"/><path d="m264.426 3.069 243.494 204.363c2.398 2.012 3.783 4.982 3.783 8.113v50.528c0 8.947-10.406 13.863-17.317 8.182l-230.064-189.121c-4.837-3.976-11.81-3.976-16.647 0l-230.062 189.121c-6.911 5.681-17.317.765-17.317-8.182v-50.528c0-3.13 1.385-6.1 3.782-8.113l243.494-204.363c4.873-4.091 11.98-4.091 16.854 0z" fill="#5f99d7"/><path d="m511.702 215.544v24.965c-.607-.967-1.379-1.852-2.274-2.604l-263.566-221.198c-3.056-2.573-6.936-3.653-10.682-3.241l12.39-10.394c4.878-4.096 11.978-4.096 16.856 0l243.488 204.363c2.399 2.006 3.788 4.98 3.788 8.109z" fill="#3c87d0"/><g><path d="m225.935 511.998c0-31.765-25.751-57.516-57.516-57.516-3.497 0-6.915.329-10.24.927-8.383-17.692-26.398-29.932-47.277-29.932-28.881 0-52.293 23.413-52.293 52.293 0 13.117 4.829 25.042 12.806 34.222z" fill="#91deb6"/><path d="m225.94 511.998h-16.084c-9.673-21.837-31.541-37.067-56.959-37.067-1.16 0-2.312.034-3.456.099-4.633.265-8.963-2.109-11.515-5.985-10.122-15.374-27.525-25.521-47.308-25.521-8.181 0-15.951 1.739-22.969 4.857 9.406-13.831 25.264-22.907 43.252-22.907 20.88 0 38.899 12.246 47.275 29.936 3.324-.597 6.751-.926 10.239-.926 31.767-.001 57.525 25.746 57.525 57.514z" fill="#6ed5a1"/><path d="m.296 511.991c0-27.091 21.961-49.052 49.052-49.052s49.052 21.961 49.052 49.052z" fill="#46cc8d"/><path d="m98.397 511.987h-19.923c-5.228-21.456-24.584-37.386-47.646-37.386-5.68 0-11.134.967-16.208 2.748 8.881-8.902 21.158-14.407 34.731-14.407 27.086 0 49.046 21.96 49.046 49.045z" fill="#00c27a"/></g><g><path d="m286.062 511.998c0-31.765 25.751-57.516 57.516-57.516 3.497 0 6.915.329 10.24.927 8.383-17.692 26.398-29.932 47.277-29.932 28.881 0 52.293 23.413 52.293 52.293 0 13.117-4.829 25.042-12.806 34.222z" fill="#91deb6"/><path d="m453.385 477.771c0 13.11-4.826 25.037-12.802 34.217h-48.593c0-31.613 21.466-58.214 50.62-66.025 6.751 8.808 10.775 19.84 10.775 31.808z" fill="#6ed5a1"/><path d="m511.702 511.991c0-27.091-21.961-49.052-49.052-49.052s-49.052 21.961-49.052 49.052z" fill="#46cc8d"/><path d="m511.702 511.987h-19.923c-5.228-21.456-24.584-37.386-47.646-37.386-5.68 0-11.134.967-16.208 2.748 8.881-8.902 21.158-14.407 34.731-14.407 27.086 0 49.046 21.96 49.046 49.045z" fill="#00c27a"/></g><g><g fill="#ac5e2e"><path d="m323.273 358.029c-8.008-13.381-21.637-22.307-35.247-29.919-20.335-11.371-43.496-11.495-64.053 0-13.61 7.611-27.239 16.538-35.247 29.919s-8.706 32.306 2.276 43.377c5.849 5.897 14.165 8.83 22.427 9.678s16.588-.204 24.828-1.254c8.643-1.102 15.933-2.454 24.649-1.411 11.782 1.411 23.759 3.887 35.665 2.664 8.262-.848 16.578-3.781 22.427-9.678 10.981-11.069 10.283-29.995 2.275-43.376z"/><g><circle cx="173.764" cy="288.569" r="26.757"/><circle cx="338.234" cy="288.569" r="26.757"/></g><circle cx="255.999" cy="259.638" r="28.931"/></g><g fill="#9e5528"><path d="m320.998 401.403c-5.85 5.9-14.161 8.831-22.434 9.681-5.862.597-11.75.305-17.625-.317 5.812-1.637 11.242-4.453 15.468-8.717 11.712-11.801 10.963-31.988 2.424-46.263-8.54-14.275-23.081-23.804-37.597-31.913-2.906-1.624-5.862-3.032-8.869-4.225 12.143-.711 24.337 2.132 35.656 8.463 13.615 7.613 27.243 16.534 35.25 29.92 8.004 13.374 8.702 32.306-2.273 43.371z"/><g><path d="m200.517 288.574c0 14.77-11.978 26.748-26.748 26.748-8.121 0-15.392-3.616-20.289-9.313 14.567-.228 26.317-12.118 26.317-26.748 0-6.662-2.436-12.752-6.471-17.434.14-.013.292-.013.444-.013 14.769-.001 26.747 11.977 26.747 26.76z"/><path d="m364.99 288.574c0 14.77-11.978 26.748-26.76 26.748-8.108 0-15.379-3.616-20.29-9.313 14.567-.228 26.317-12.105 26.317-26.748 0-6.662-2.436-12.752-6.471-17.434.14-.013.292-.013.444-.013 14.781-.001 26.76 11.977 26.76 26.76z"/></g><path d="m284.923 259.643c0 15.975-12.943 28.931-28.931 28.931-8.413 0-15.988-3.591-21.279-9.326.178.013.368.013.558.013 15.975 0 28.931-12.955 28.931-28.931 0-7.562-2.906-14.44-7.651-19.604 15.734.291 28.372 13.12 28.372 28.917z"/></g></g></g></svg>